<svg xmlns="http://www.w3.org/2000/svg" viewBox="0 0 48 48"><defs><style>.cls-1{fill:#bfbfbf;}.cls-2{fill:#424242;}.cls-3{fill:#fc6459;}</style></defs><title>Brainstorming</title><g id="Brainstorming"><path class="cls-1" d="M19.51,22.67A2,2,0,0,1,23,24a1,1,0,0,0,2,0,2,2,0,0,1,3.49-1.33,1,1,0,0,0,1.41.08c1.66-1.49-3.16-4.51-5.9-1.37-2.76-3.16-7.56-.11-5.9,1.37A1,1,0,0,0,19.51,22.67Z"/><path class="cls-1" d="M24,29a5,5,0,0,0-9,3,1,1,0,0,0,2,0,3,3,0,0,1,6,0,1,1,0,0,0,2,0,3,3,0,0,1,6,0,1,1,0,0,0,2,0A5,5,0,0,0,24,29Z"/><path class="cls-2" d="M42.31,21a6.94,6.94,0,0,0,.28-5.36,1,1,0,1,0-1.88.68,5,5,0,0,1-.52,4.39,1,1,0,0,0,.26,1.37,6,6,0,0,1-4.3,10.84,1,1,0,0,0-.3,2,7.78,7.78,0,0,0,3-.15,6,6,0,0,1-8,6.81,1,1,0,0,0-1.31.55,1,1,0,0,0,.55,1.31,7.39,7.39,0,0,0,1.46.42,4,4,0,0,1-6.53.75V2.79a3,3,0,0,1,4.9,1.47,1,1,0,1,0,1.94-.5A5,5,0,0,0,24,1h0a5,5,0,0,0-7.77,2.49A8,8,0,0,0,11,11.07,7,7,0,0,0,5.69,21a8,8,0,0,0,1.55,13A8,8,0,0,0,14.33,44,6,6,0,0,0,24,46.47,6,6,0,0,0,33.67,44a8,8,0,0,0,7.09-9.91A8,8,0,0,0,42.31,21ZM23,44.61a4,4,0,0,1-6.53-.75,7.39,7.39,0,0,0,1.46-.42,1,1,0,1,0-.76-1.86,6,6,0,0,1-8-6.81,7.78,7.78,0,0,0,3,.15,1,1,0,0,0-.3-2A6,6,0,0,1,5,27a6,6,0,0,1,2.55-4.9,1,1,0,0,0,.26-1.37,5,5,0,0,1,5.86-7.45,1,1,0,0,0,.66-1.88A6.78,6.78,0,0,0,13,11.08a6,6,0,0,1,4.34-5.85,1,1,0,0,0,.71-.78A3,3,0,0,1,23,2.79Z"/><path class="cls-1" d="M19.5,34a1,1,0,0,0-1,1,2,2,0,0,1-2,2,1,1,0,0,0-1,1c0,2.09,5,.81,5-3A1,1,0,0,0,19.5,34Z"/><path class="cls-1" d="M13,27a2,2,0,0,1-2-2,1,1,0,0,0-1-1c-2.09,0-.81,5,3,5a1,1,0,0,0,0-2Z"/><path class="cls-1" d="M39,25a1,1,0,0,0-2,0,2,2,0,0,1-2,2,1,1,0,0,0-1,1C34,30.09,39,28.81,39,25Z"/><path class="cls-1" d="M16,17c0-2.09-5-.81-5,3a1,1,0,0,0,2,0,2,2,0,0,1,2-2A1,1,0,0,0,16,17Z"/><circle class="cls-1" cx="45" cy="45" r="2"/><path class="cls-3" d="M44,3H30a2,2,0,0,0-2,2V15a2,2,0,0,0,2,2h1v2a1,1,0,0,0,1,1c.48,0,.42-.06,4.33-3H44a2,2,0,0,0,2-2V5A2,2,0,0,0,44,3ZM32,7h6a1,1,0,0,1,0,2H32a1,1,0,0,1,0-2Zm10,6H32a1,1,0,0,1,0-2H42a1,1,0,0,1,0,2Z"/><path class="cls-1" d="M11.65,2.24C11.28,1.92,11.27,2,8,2V1A1,1,0,0,0,7,0H1A1,1,0,0,0,0,1V5A1,1,0,0,0,1,6H7A1,1,0,0,0,8,5V4h2.63c7.23,6.2,6.84,6,7.37,6a1,1,0,0,0,.65-1.76Z"/><path class="cls-1" d="M45,42a3,3,0,0,0-2.82,2H39.45l-7.7-8.66a1,1,0,0,0-1.5,1.32l8,9A1,1,0,0,0,39,46h3.18A3,3,0,1,0,45,42Z"/></g></svg>