<?xml version="1.0" encoding="utf-8"?><!-- Uploaded to: SVG Repo, www.svgrepo.com, Generator: SVG Repo Mixer Tools -->
<svg fill="#000000" width="800px" height="800px" viewBox="0 0 1024 1024" xmlns="http://www.w3.org/2000/svg"><path d="M512 928c229.75 0 416-186.25 416-416S741.75 96 512 96 96 282.25 96 512s186.25 416 416 416zm0 96C229.23 1024 0 794.77 0 512S229.23 0 512 0s512 229.23 512 512-229.23 512-512 512z"/><path d="M454.83 624.659v-28.351c0-11.937.971-22.631 2.913-32.082s4.994-18.403 9.155-26.859c4.161-8.456 9.71-16.662 16.646-24.621s15.675-16.414 26.217-25.367l37.453-32.082c10.542-8.456 19.559-17.906 27.049-28.351s11.236-23.129 11.236-38.05c0-19.398-6.797-35.688-20.391-48.868s-32.875-19.771-57.844-19.771c-12.762 0-24.275 2.114-34.54 6.342s-19.143 9.948-26.633 17.16c-7.491 7.212-13.178 15.543-17.062 24.994s-6.103 19.149-6.658 29.097L320 389.643c3.329-23.875 10.404-45.138 21.223-63.79s24.83-34.444 42.03-47.376c17.201-12.932 36.898-22.756 59.092-29.47s46.053-10.072 71.577-10.072c23.859 0 46.469 3.109 67.831 9.326s40.227 15.419 56.596 27.605c16.368 12.186 29.269 27.232 38.701 45.138s14.149 38.548 14.149 61.925c0 15.917-1.942 29.843-5.826 41.781s-9.433 22.88-16.646 32.828c-7.213 9.948-15.952 19.522-26.217 28.724s-21.778 18.776-34.54 28.724c-11.097 8.456-20.114 15.916-27.049 22.383s-12.484 12.932-16.646 19.398c-4.161 6.466-7.074 13.429-8.739 20.89s-2.497 16.662-2.497 27.605v19.398h-98.21zm-16.645 103.705c0-15.917 6.52-29.595 19.559-41.035s28.714-17.16 47.024-17.16c17.756 0 33.291 5.471 46.608 16.414s19.975 24.372 19.975 40.289c0 15.917-6.52 29.595-19.559 41.035s-28.714 17.16-47.024 17.16c-8.878 0-17.339-1.492-25.385-4.477s-15.12-6.963-21.223-11.937c-6.103-4.974-10.958-10.943-14.565-17.906s-5.41-14.424-5.41-22.383z"/></svg>